<svg xmlns="http://www.w3.org/2000/svg" width="20" height="20" viewBox="0 0 20 20">
  <g id="searching" transform="translate(0)">
    <g id="Groupe_56" data-name="Groupe 56" transform="translate(0 0)">
      <path id="Tracé_37" data-name="Tracé 37" d="M2.516,2.515A8.587,8.587,0,0,1,17.175,8.587,8.523,8.523,0,0,1,15.06,14.23L19.829,19a.587.587,0,1,1-.829.829l-4.769-4.769A8.587,8.587,0,0,1,0,8.587,8.531,8.531,0,0,1,2.516,2.515Zm.83,11.314a7.41,7.41,0,1,0,0-10.485A7.422,7.422,0,0,0,3.346,13.829Z" transform="translate(-0.001 0)" fill="#1b2331"/>
    </g>
  </g>
</svg>
